<svg width="43" height="43" viewBox="0 0 43 43" fill="none" xmlns="http://www.w3.org/2000/svg">
<g clip-path="url(#clip0_2_32)">
<path d="M29.0667 22.1701C29.6611 21.5744 29.6611 21.6845 29.0667 21.0888L27.6526 20.3934C25.0334 19.1054 23.0146 16.85 22.0204 14.1015L21.749 13.3511C21.1546 12.7555 21.6353 12.7555 21.0409 13.3511C20.1856 16.5433 17.9677 19.1944 14.9802 20.5956L13.3523 21.3591C12.7579 21.9548 12.7579 21.4055 13.3523 22.0011L13.6019 22.0623C17.3231 22.9746 20.1905 25.9475 20.9734 29.705C21.5679 30.3007 21.2557 30.3007 21.8502 29.705L21.8861 29.5327C22.6457 25.8874 25.4471 23.0149 29.0667 22.1701Z" fill="black"/>
<path d="M9.46681 17.3363C7.35447 15.5995 4.26353 15.5637 2.21392 17.3734C1.0829 18.3722 0.338318 19.836 0.338318 21.5579C0.338318 23.2798 1.08222 24.7442 2.21392 25.743C4.26353 27.5527 7.35447 27.5162 9.46681 25.7802L14.602 21.5585L9.46681 17.3369V17.3363Z" fill="black" stroke="black" stroke-width="1.02593" stroke-miterlimit="10"/>
<path d="M13.7522 21.5494H19.5395H13.7522Z" fill="black"/>
<path d="M13.7522 21.5494H19.5395" stroke="black" stroke-width="2.05186" stroke-miterlimit="10"/>
<path d="M25.651 9.48399C27.3843 7.36744 27.42 4.27033 25.6139 2.21663C24.6171 1.08334 23.1562 0.33728 21.4378 0.33728C19.7193 0.33728 18.2585 1.08267 17.261 2.21663C15.4548 4.27033 15.4913 7.36744 17.2239 9.48399L21.4371 14.6294L25.6503 9.48399H25.651Z" fill="black" stroke="black" stroke-width="1.02593" stroke-miterlimit="10"/>
<path d="M21.4372 13.7727V19.5716V13.7727Z" fill="black"/>
<path d="M21.4372 13.7727V19.5716" stroke="black" stroke-width="2.05186" stroke-miterlimit="10"/>
<path d="M33.534 25.7812C35.6464 27.518 38.7373 27.5538 40.7869 25.7441C41.9179 24.7453 42.6625 23.2815 42.6625 21.5596C42.6625 19.8377 41.9186 18.3733 40.7869 17.3745C38.7373 15.5648 35.6464 15.6013 33.534 17.3373L28.3989 21.559L33.534 25.7806V25.7812Z" fill="black" stroke="black" stroke-width="1.02593" stroke-miterlimit="10"/>
<path d="M29.2525 21.5508H23.4652H29.2525Z" fill="black"/>
<path d="M29.2525 21.5508H23.4652" stroke="black" stroke-width="2.05186" stroke-miterlimit="10"/>
<path d="M17.2154 33.4979C15.4821 35.6144 15.4463 38.7115 17.2525 40.7652C18.2493 41.8985 19.7101 42.6446 21.4286 42.6446C23.147 42.6446 24.6078 41.8992 25.6053 40.7652C27.4115 38.7115 27.3751 35.6144 25.6424 33.4979L21.4292 28.3525L17.216 33.4979H17.2154Z" fill="black" stroke="black" stroke-width="1.02593" stroke-miterlimit="10"/>
<path d="M21.4285 29.2131V23.4142V29.2131Z" fill="black"/>
<path d="M21.4285 29.2131V23.4142" stroke="black" stroke-width="2.05186" stroke-miterlimit="10"/>
</g>
<defs>
<clipPath id="clip0_2_32">
<rect width="43" height="43" fill="white"/>
</clipPath>
</defs>
</svg>
